{"glyphs":{":":{"x_min":0,"x_max":329,"ha":329,"o":"m 100 388 q 100 414 119 433 q 138 451 164 451 q 191 451 209 433 q 228 415 228 388 q 228 361 209 343 q 191 324 164 324 q 137 324 119 343 q 100 361 100 388 z m 100 54 q 100 80 119 99 q 138 118 164 118 q 191 118 209 100 q 228 81 228 54 q 228 28 209 10 q 191 -9 164 -9 q 137 -9 119 10 q 100 28 100 54 z"},"$":{"x_min":0,"x_max":604,"ha":604,"o":"m 67 155 l 159 196 q 171 154 200 131 q 229 107 277 102 l 277 325 q 177 366 131 415 q 86 464 86 531 q 86 608 137 659 q 188 709 277 720 l 277 775 l 328 775 l 328 719 q 398 713 443 685 q 488 656 507 606 l 417 561 q 400 587 379 602 q 357 617 328 622 l 328 426 q 448 370 489 324 q 530 278 530 210 q 530 122 477 67 q 425 13 328 1 l 328 -82 l 277 -82 l 277 -1 q 190 5 137 44 q 84 83 67 155 z m 277 619 q 241 608 225 589 q 209 570 209 538 q 209 508 225 485 q 241 463 277 444 z m 328 105 q 368 115 389 140 q 410 166 410 203 q 410 235 391 259 q 371 283 328 304 z"},"?":{"x_min":0,"x_max":544,"ha":544,"o":"m 186 545 l 102 545 q 102 548 102 554 q 101 560 101 563 q 101 640 148 686 q 194 732 272 732 q 352 732 399 686 q 446 641 446 564 q 446 508 418 472 q 391 436 309 396 q 305 394 297 390 q 201 342 201 300 q 201 275 220 257 q 239 239 266 239 q 299 239 316 258 q 334 278 335 315 l 422 315 l 422 305 q 422 233 381 193 q 341 154 266 154 q 197 154 152 195 q 107 235 107 298 q 107 355 138 394 q 169 432 259 475 q 320 504 337 523 q 354 542 354 568 q 354 601 331 622 q 308 643 272 643 q 232 643 209 617 q 186 591 186 545 z m 194 45 q 194 71 213 90 q 232 109 258 109 q 285 109 303 90 q 322 72 322 45 q 322 19 303 0 q 285 -19 258 -19 q 231 -19 213 0 q 194 19 194 45 z"},"<":{"x_min":0,"x_max":833,"ha":833,"o":"m 704 574 l 704 484 l 248 298 l 704 112 l 704 23 l 129 259 l 129 337 z"},"'":{"x_min":0,"x_max":163,"ha":163,"o":"m 42 701 l 122 701 l 122 429 l 42 429 z"},"=":{"x_min":0,"x_max":833,"ha":833,"o":"m 124 238 l 709 238 l 709 157 l 124 157 z m 124 440 l 709 440 l 709 358 l 124 358 z"},"a":{"x_min":0,"x_max":582,"ha":582,"o":"m 509 0 l 403 0 l 403 60 q 375 20 337 0 q 299 -19 250 -19 q 152 -19 95 48 q 39 115 39 232 q 39 343 97 411 q 154 479 247 479 q 304 479 344 455 q 384 432 403 387 l 403 463 l 509 463 z m 406 233 q 406 305 372 345 q 339 385 279 385 q 219 385 184 344 q 150 302 150 229 q 150 155 183 115 q 216 75 277 75 q 334 75 370 119 q 406 162 406 233 z"},"L":{"x_min":0,"x_max":470,"ha":470,"o":"m 82 0 l 82 715 l 198 715 l 198 104 l 458 104 l 458 0 z"},"3":{"x_min":0,"x_max":604,"ha":604,"o":"m 46 191 l 157 191 l 157 185 q 157 136 191 106 q 225 77 282 77 q 347 77 383 110 q 418 142 418 203 q 418 267 382 300 q 345 332 273 332 q 270 332 262 332 q 255 331 251 331 l 251 425 q 254 425 261 424 q 269 424 272 424 q 335 424 368 450 q 400 477 400 529 q 400 575 371 602 q 342 629 293 629 q 241 629 211 604 q 182 579 180 533 l 75 533 q 80 625 137 673 q 194 722 296 722 q 394 722 451 671 q 509 620 509 532 q 509 466 476 424 q 444 382 386 373 q 454 361 490 313 q 525 266 525 188 q 525 93 458 37 q 392 -19 278 -19 q 175 -19 112 38 q 49 95 46 191 z"},";":{"x_min":0,"x_max":329,"ha":329,"o":"m 143 388 q 143 414 161 433 q 180 451 206 451 q 233 451 252 433 q 270 415 270 388 q 270 361 251 343 q 233 324 206 324 q 180 324 161 343 q 143 361 143 388 z m 154 121 l 249 86 l 122 -176 l 58 -151 z"},"J":{"x_min":0,"x_max":394,"ha":394,"o":"m 76 130 q 94 108 111 99 q 127 89 146 89 q 180 89 194 111 q 208 134 208 195 l 208 715 l 323 715 l 323 157 q 323 66 283 24 q 243 -19 158 -19 q 111 -19 73 -1 q 36 17 2 55 z"},"V":{"x_min":0,"x_max":618,"ha":618,"o":"m 309 -28 l -10 715 l 111 715 l 271 334 q 285 301 294 273 q 304 245 309 219 q 315 246 325 275 q 335 304 348 334 l 508 715 l 628 715 z"},"\"":{"x_min":0,"x_max":314,"ha":314,"o":"m 193 701 l 273 701 l 273 429 l 193 429 z m 42 701 l 122 701 l 122 429 l 42 429 z"},"7":{"x_min":0,"x_max":604,"ha":604,"o":"m 112 15 l 404 616 l 73 616 l 73 708 l 566 708 l 206 -27 z"},"S":{"x_min":0,"x_max":549,"ha":549,"o":"m 41 143 l 134 186 q 147 138 182 113 q 217 88 272 88 q 324 88 354 117 q 385 146 385 194 q 385 257 280 306 q 266 313 258 317 q 140 375 100 421 q 61 468 61 535 q 61 623 120 677 q 180 731 276 731 q 355 731 408 700 q 461 670 482 613 l 391 566 q 370 600 344 615 q 318 631 285 631 q 238 631 211 606 q 183 582 183 541 q 183 477 304 421 q 313 417 319 414 q 425 365 464 319 q 504 272 504 202 q 504 101 440 41 q 376 -19 267 -19 q 176 -19 117 23 q 59 65 41 143 z"},"}":{"x_min":0,"x_max":500,"ha":500,"o":"m 74 721 l 96 721 q 152 721 184 716 q 215 710 237 697 q 265 681 276 650 q 287 620 287 550 l 287 429 q 287 359 312 330 q 338 302 400 302 q 403 302 410 302 q 417 303 421 303 l 421 216 q 417 216 410 216 q 403 217 400 217 q 338 217 313 188 q 287 159 287 89 l 287 -32 q 287 -102 276 -132 q 265 -162 237 -178 q 216 -191 184 -197 q 152 -202 96 -202 l 74 -202 l 74 -116 q 78 -116 85 -117 q 93 -117 96 -117 q 149 -117 168 -97 q 187 -76 187 -11 l 187 106 q 187 181 209 213 q 231 245 287 259 q 231 272 209 304 q 187 336 187 412 l 187 530 q 187 594 168 615 q 150 635 97 635 q 94 635 86 634 q 78 634 74 634 z"},"Z":{"x_min":0,"x_max":576,"ha":576,"o":"m 9 0 l 373 616 l 70 616 l 70 715 l 552 715 l 191 104 l 556 104 l 556 0 z"},"x":{"x_min":0,"x_max":453,"ha":453,"o":"m 105 0 l -12 0 l 163 249 l 13 463 l 130 463 l 195 367 q 205 353 213 339 q 221 325 227 311 q 233 323 240 336 q 248 349 260 368 l 324 463 l 440 463 l 290 248 l 464 0 l 348 0 l 262 122 l 258 127 q 233 165 226 185 q 216 167 207 151 q 198 135 189 121 z"},")":{"x_min":0,"x_max":303,"ha":303,"o":"m 101 -218 l 22 -192 q 75 -96 100 15 q 125 126 125 264 q 125 396 100 508 q 75 621 22 724 l 101 748 q 160 644 188 523 q 217 403 217 263 q 217 130 188 10 q 159 -110 101 -218 z"},"&":{"x_min":0,"x_max":671,"ha":671,"o":"m 279 456 l 305 471 q 333 487 346 509 q 360 530 360 556 q 360 586 341 606 q 323 625 293 625 q 260 625 240 605 q 220 586 220 555 q 220 540 226 526 q 231 512 243 499 z m 407 144 l 251 324 l 233 312 q 182 279 161 251 q 141 224 141 190 q 141 143 174 110 q 208 77 257 77 q 293 77 331 94 q 368 110 407 144 z m 531 0 l 473 68 q 422 24 369 4 q 315 -17 252 -17 q 153 -17 92 40 q 30 97 30 187 q 30 248 68 300 q 106 351 189 403 l 160 434 q 136 460 124 491 q 111 521 111 553 q 111 624 162 669 q 214 714 295 714 q 375 714 423 673 q 470 632 470 563 q 470 511 437 468 q 404 424 331 382 l 480 209 q 501 230 524 258 q 546 285 572 321 l 640 248 q 621 217 597 189 q 573 161 545 136 l 665 0 z"},"_":{"x_min":0,"x_max":500,"ha":500,"o":"m 0 -152 l 500 -152 l 500 -236 l 0 -236 z"},"v":{"x_min":0,"x_max":472,"ha":472,"o":"m 236 -28 l -7 463 l 109 463 l 210 230 q 215 219 222 198 q 229 176 236 146 q 241 167 247 188 q 254 209 263 230 l 364 463 l 479 463 z"},"O":{"x_min":0,"x_max":866,"ha":866,"o":"m 694 356 q 694 410 674 459 q 654 508 617 546 q 581 583 533 604 q 486 624 433 624 q 380 624 333 604 q 285 584 248 546 q 211 508 191 459 q 172 411 172 356 q 172 302 191 253 q 211 205 248 167 q 285 129 333 109 q 380 89 433 89 q 485 89 532 109 q 580 129 617 167 q 654 205 674 254 q 694 302 694 356 z m 815 356 q 815 280 786 212 q 758 144 703 91 q 648 38 579 9 q 509 -19 433 -19 q 356 -19 286 10 q 216 38 162 91 q 107 144 79 211 q 51 279 51 356 q 51 433 79 500 q 107 568 162 622 q 217 675 286 703 q 355 731 433 731 q 510 731 579 703 q 648 675 703 622 q 758 568 786 500 q 815 432 815 356 z"},"(":{"x_min":0,"x_max":303,"ha":303,"o":"m 198 -218 q 140 -110 111 10 q 82 130 82 263 q 82 403 111 523 q 140 644 198 748 l 278 724 q 226 621 200 508 q 175 396 175 264 q 175 126 200 15 q 225 -96 278 -192 z"},"C":{"x_min":0,"x_max":718,"ha":718,"o":"m 656 541 q 606 583 552 604 q 497 625 436 625 q 319 625 245 550 q 172 475 172 355 q 172 239 243 164 q 315 89 424 89 q 487 89 545 111 q 602 134 655 179 l 655 48 q 608 14 553 -2 q 498 -19 433 -19 q 351 -19 281 8 q 212 35 159 87 q 107 138 79 208 q 51 277 51 356 q 51 435 79 504 q 107 573 160 625 q 213 678 282 705 q 351 732 431 732 q 494 732 551 714 q 608 695 662 658 z"},"W":{"x_min":0,"x_max":939,"ha":939,"o":"m -3 715 l 112 715 l 247 354 q 260 318 269 292 q 278 265 285 241 q 302 298 321 352 q 323 359 324 361 l 468 743 l 619 354 q 630 326 639 297 q 649 269 657 240 q 662 262 670 289 q 679 315 692 351 l 826 715 l 942 715 l 665 -28 l 502 380 q 491 407 482 432 q 474 458 467 480 q 458 451 450 426 q 442 401 433 378 l 273 -28 z"},"A":{"x_min":0,"x_max":662,"ha":662,"o":"m 233 281 l 432 281 l 359 444 q 353 459 346 480 q 339 500 332 525 q 326 501 320 481 q 313 461 306 444 z m 554 0 l 473 184 l 190 184 l 107 0 l -15 0 l 331 743 l 677 0 z"},"f":{"x_min":0,"x_max":306,"ha":306,"o":"m 88 0 l 88 370 l 7 370 l 7 463 l 88 463 l 88 587 q 88 679 126 723 q 165 767 245 767 q 262 767 280 765 q 298 762 317 757 l 317 661 q 304 668 291 672 q 278 676 265 676 q 227 676 210 652 q 194 629 194 573 l 194 463 l 305 463 l 305 370 l 194 370 l 194 0 z"},"Q":{"x_min":0,"x_max":866,"ha":866,"o":"m 562 256 l 631 182 q 664 222 679 264 q 694 307 694 357 q 694 412 675 460 q 655 508 618 546 q 581 584 533 604 q 485 625 433 625 q 381 625 333 604 q 285 584 248 546 q 211 508 191 460 q 172 412 172 357 q 172 245 248 168 q 324 91 436 91 q 466 91 494 97 q 521 104 549 118 l 421 256 z m 707 97 l 859 -67 l 720 -67 l 627 34 q 579 8 530 -4 q 480 -17 427 -17 q 354 -17 284 12 q 214 41 162 92 q 108 145 79 212 q 51 280 51 357 q 51 434 79 501 q 108 569 162 622 q 216 675 285 703 q 355 731 433 731 q 511 731 580 703 q 649 675 703 622 q 757 569 786 501 q 815 433 815 357 q 815 283 787 216 q 760 149 707 97 z"},"w":{"x_min":0,"x_max":750,"ha":750,"o":"m 516 -28 l 409 213 q 397 241 389 262 q 381 284 375 305 q 364 273 356 251 q 348 228 343 217 l 233 -28 l -7 463 l 106 463 l 210 240 q 216 226 222 201 q 229 176 233 146 q 233 164 239 183 q 244 202 257 230 l 370 480 l 379 480 l 494 230 q 505 207 510 187 q 515 167 516 146 q 521 173 527 196 q 534 220 543 239 l 645 463 l 757 463 z"},"-":{"x_min":0,"x_max":405,"ha":405,"o":"m 72 279 l 333 279 l 333 181 l 72 181 z"},"E":{"x_min":0,"x_max":532,"ha":532,"o":"m 82 0 l 82 715 l 481 715 l 481 616 l 198 616 l 198 437 l 481 437 l 481 335 l 198 335 l 198 104 l 481 104 l 481 0 z"},"s":{"x_min":0,"x_max":426,"ha":426,"o":"m 20 84 l 108 132 q 118 97 144 79 q 170 61 212 61 q 248 61 268 77 q 288 94 288 122 q 288 160 216 187 q 191 195 178 201 q 104 232 74 264 q 45 295 45 341 q 45 403 94 441 q 142 480 222 480 q 276 480 314 460 q 353 440 370 404 l 295 352 q 287 374 266 387 q 245 400 218 400 q 188 400 169 385 q 151 371 151 347 q 151 311 233 281 q 259 272 273 266 q 337 241 365 209 q 392 177 392 129 q 392 60 342 20 q 292 -19 203 -19 q 135 -19 90 6 q 45 32 20 84 z"},">":{"x_min":0,"x_max":833,"ha":833,"o":"m 129 574 l 704 337 l 704 259 l 129 23 l 129 112 l 585 298 l 129 484 z"},"l":{"x_min":0,"x_max":262,"ha":262,"o":"m 78 0 l 78 757 l 184 757 l 184 0 z"},"8":{"x_min":0,"x_max":604,"ha":604,"o":"m 183 378 q 130 401 105 438 q 80 475 80 531 q 80 617 141 669 q 201 722 301 722 q 403 722 463 669 q 523 615 523 526 q 523 473 497 435 q 471 397 420 378 q 479 358 513 309 q 547 259 547 192 q 547 93 482 37 q 417 -19 301 -19 q 187 -19 122 37 q 56 93 56 190 q 56 260 89 309 q 123 358 183 378 z m 303 628 q 252 628 223 601 q 194 575 194 529 q 194 484 222 458 q 251 433 301 433 q 352 433 381 458 q 409 483 409 529 q 409 575 381 602 q 353 628 303 628 z m 301 76 q 364 76 399 109 q 435 142 435 200 q 435 259 399 292 q 364 325 301 325 q 239 325 204 292 q 168 258 168 200 q 168 142 203 109 q 238 76 301 76 z"},"\\":{"x_min":0,"x_max":433,"ha":433,"o":"m 350 -93 l 0 731 l 83 731 l 433 -93 z"},"e":{"x_min":0,"x_max":556,"ha":556,"o":"m 519 216 l 149 216 q 153 151 188 115 q 222 78 280 78 q 331 78 365 100 q 399 121 425 169 l 514 119 q 475 49 417 15 q 360 -19 282 -19 q 171 -19 105 49 q 39 117 39 230 q 39 339 107 409 q 175 479 282 479 q 394 479 457 415 q 519 351 519 236 z m 409 287 q 403 337 371 363 q 339 389 284 389 q 232 389 200 364 q 168 338 156 287 z"},"b":{"x_min":0,"x_max":582,"ha":582,"o":"m 176 233 q 176 162 212 119 q 249 75 306 75 q 366 75 399 115 q 432 155 432 229 q 432 302 398 344 q 363 385 303 385 q 243 385 209 345 q 176 305 176 233 z m 179 757 l 179 387 q 198 431 239 455 q 279 479 336 479 q 428 479 486 411 q 543 343 543 232 q 543 115 487 48 q 430 -19 332 -19 q 283 -19 245 0 q 208 20 179 60 l 179 0 l 73 0 l 73 757 z"},"%":{"x_min":0,"x_max":792,"ha":792,"o":"m 604 39 q 641 39 659 72 q 677 104 677 170 q 677 233 658 266 q 640 300 606 300 q 570 300 552 267 q 533 234 533 169 q 533 106 552 73 q 570 39 604 39 z m 446 170 q 446 259 488 308 q 531 358 606 358 q 682 358 723 309 q 765 260 765 170 q 765 81 723 31 q 680 -19 605 -19 q 530 -19 488 31 q 446 81 446 170 z m 28 534 q 28 623 70 672 q 113 722 188 722 q 264 722 305 673 q 347 624 347 534 q 347 445 305 396 q 263 346 188 346 q 112 346 70 396 q 28 445 28 534 z m 187 403 q 223 403 241 436 q 259 468 259 534 q 259 598 241 631 q 223 665 189 665 q 153 665 135 632 q 116 598 116 533 q 116 470 135 437 q 153 403 187 403 z m 222 -19 l 155 -19 l 572 722 l 639 722 z"},"m":{"x_min":0,"x_max":875,"ha":875,"o":"m 179 0 l 73 0 l 73 463 l 173 463 l 173 387 q 205 436 245 458 q 285 480 340 480 q 394 480 430 457 q 465 435 484 388 q 521 436 562 458 q 603 480 656 480 q 702 480 736 463 q 770 446 789 414 q 798 399 802 378 q 806 357 806 318 l 806 281 l 806 0 l 700 0 l 700 238 q 700 331 680 361 q 661 390 610 390 q 547 390 521 350 q 494 311 494 211 l 494 0 l 387 0 l 387 238 q 387 324 366 357 q 346 390 295 390 q 264 390 238 376 q 212 362 197 337 q 187 321 183 297 q 179 274 179 211 z"},"#":{"x_min":0,"x_max":769,"ha":769,"o":"m 346 416 l 302 292 l 427 292 l 471 416 z m 359 713 l 452 713 l 377 500 l 499 500 l 575 713 l 668 713 l 593 500 l 735 500 l 706 416 l 563 416 l 519 293 l 670 293 l 640 209 l 490 209 l 414 -3 l 321 -3 l 397 209 l 274 209 l 197 -3 l 104 -3 l 180 209 l 34 209 l 64 293 l 209 293 l 253 416 l 99 416 l 129 500 l 283 500 z"},",":{"x_min":0,"x_max":302,"ha":302,"o":"m 151 121 l 246 86 l 119 -176 l 56 -151 z"},"n":{"x_min":0,"x_max":588,"ha":588,"o":"m 73 0 l 73 463 l 173 463 l 173 387 q 205 435 248 457 q 291 479 352 479 q 404 479 440 463 q 477 446 497 414 q 509 395 515 370 q 520 344 520 281 l 520 0 l 413 0 l 413 238 q 413 329 391 359 q 369 389 312 389 q 275 389 246 375 q 217 362 200 337 q 188 320 184 294 q 179 268 179 211 l 179 0 z"},"h":{"x_min":0,"x_max":588,"ha":588,"o":"m 73 0 l 73 757 l 173 757 l 173 387 q 205 435 248 457 q 291 479 352 479 q 404 479 440 463 q 477 446 497 414 q 509 395 515 370 q 520 344 520 281 l 520 0 l 413 0 l 413 238 q 413 329 391 359 q 369 389 312 389 q 275 389 246 375 q 217 362 200 337 q 188 320 184 294 q 179 268 179 211 l 179 0 z"},"z":{"x_min":0,"x_max":449,"ha":449,"o":"m 429 0 l -1 0 l 257 370 l 25 370 l 25 463 l 429 463 l 177 93 l 429 93 z"},"B":{"x_min":0,"x_max":576,"ha":576,"o":"m 196 413 l 240 413 q 323 413 358 436 q 392 458 392 512 q 392 571 360 594 q 329 618 240 618 l 196 618 z m 196 97 l 236 97 q 297 97 327 102 q 357 107 375 119 q 396 133 408 157 q 420 181 420 210 q 420 244 406 270 q 392 295 365 309 q 349 317 327 321 q 306 325 271 325 l 236 325 l 196 325 z m 82 0 l 82 715 l 262 715 q 339 715 376 707 q 413 698 439 679 q 472 655 490 615 q 509 576 509 528 q 509 471 482 432 q 456 394 406 379 q 468 369 504 322 q 540 275 540 203 q 540 160 525 121 q 510 82 482 54 q 453 24 409 12 q 366 0 263 0 z"},"K":{"x_min":0,"x_max":620,"ha":620,"o":"m 82 0 l 82 715 l 198 715 l 198 419 l 455 715 l 597 715 l 314 397 l 631 0 l 481 0 l 198 365 l 198 0 z"},"R":{"x_min":0,"x_max":560,"ha":560,"o":"m 198 410 l 219 410 q 312 410 342 432 q 372 453 372 508 q 372 567 340 591 q 307 615 219 615 l 198 615 z m 191 320 l 191 0 l 82 0 l 82 715 l 244 715 q 315 715 355 706 q 394 696 422 675 q 455 649 473 608 q 491 567 491 518 q 491 432 450 384 q 408 335 327 325 l 573 0 l 442 0 l 204 320 z"},"T":{"x_min":0,"x_max":509,"ha":509,"o":"m 313 616 l 313 0 l 197 0 l 197 616 l 7 616 l 7 715 l 502 715 l 502 616 z"},"P":{"x_min":0,"x_max":532,"ha":532,"o":"m 198 416 l 228 416 q 325 416 357 437 q 389 458 389 511 q 389 568 355 592 q 320 615 228 615 l 198 615 z m 191 321 l 191 0 l 82 0 l 82 715 l 258 715 q 336 715 373 706 q 410 698 437 678 q 471 653 490 611 q 509 569 509 518 q 509 467 490 424 q 471 381 437 357 q 410 337 373 329 q 336 321 258 321 l 235 321 z"},"|":{"x_min":0,"x_max":500,"ha":500,"o":"m 207 764 l 294 764 l 294 -236 l 207 -236 z"},"t":{"x_min":0,"x_max":303,"ha":303,"o":"m 98 0 l 98 370 l 17 370 l 17 463 l 98 463 l 98 638 l 204 638 l 204 463 l 285 463 l 285 370 l 204 370 l 204 0 z"},"M":{"x_min":0,"x_max":863,"ha":863,"o":"m 665 353 q 663 361 659 399 q 655 430 652 451 q 647 426 639 402 q 631 377 619 352 l 432 -29 l 245 360 q 233 384 225 406 q 216 429 210 451 q 209 428 206 404 q 203 379 197 352 l 120 0 l 13 0 l 182 745 l 393 294 q 398 283 408 258 q 418 233 432 197 q 442 228 464 275 q 470 288 473 294 l 679 745 l 852 0 l 744 0 z"},"g":{"x_min":0,"x_max":582,"ha":582,"o":"m 406 233 q 406 305 372 345 q 339 385 279 385 q 219 385 184 344 q 150 302 150 229 q 150 155 183 115 q 216 75 277 75 q 334 75 370 119 q 406 162 406 233 z m 509 29 q 509 -107 455 -162 q 400 -218 272 -218 q 176 -218 119 -177 q 62 -137 61 -70 l 175 -70 q 177 -100 203 -115 q 228 -131 274 -131 q 342 -131 372 -101 q 401 -71 402 -1 l 403 60 q 375 20 337 0 q 299 -19 250 -19 q 152 -19 95 48 q 39 115 39 232 q 39 343 97 411 q 154 479 247 479 q 304 479 344 455 q 384 432 403 387 l 403 463 l 509 463 z"},"j":{"x_min":0,"x_max":262,"ha":262,"o":"m 64 663 q 64 690 84 709 q 104 729 131 729 q 159 729 178 710 q 197 691 197 663 q 197 635 178 615 q 159 596 131 596 q 104 596 84 616 q 64 636 64 663 z m 78 -218 l 78 463 l 184 463 l 184 -218 z"},"i":{"x_min":0,"x_max":262,"ha":262,"o":"m 64 663 q 64 690 84 709 q 104 729 131 729 q 159 729 178 710 q 197 691 197 663 q 197 635 178 615 q 159 596 131 596 q 104 596 84 616 q 64 636 64 663 z m 78 0 l 78 463 l 184 463 l 184 0 z"},"y":{"x_min":0,"x_max":471,"ha":471,"o":"m 153 -218 l 44 -218 l 171 40 l 1 463 l 118 463 l 203 223 q 210 201 216 178 q 222 156 225 132 q 231 157 255 210 l 258 216 l 372 463 l 487 463 z"},"@":{"x_min":0,"x_max":1000,"ha":1000,"o":"m 573 138 q 546 96 511 76 q 475 56 425 56 q 351 56 311 98 q 272 141 272 220 q 272 334 339 413 q 407 492 502 492 q 545 492 575 475 q 604 458 623 423 l 650 475 l 725 475 l 653 189 q 652 187 652 183 q 649 169 649 165 q 649 146 662 135 q 675 124 696 124 q 721 124 748 139 q 776 154 800 180 q 835 217 854 267 q 872 316 872 372 q 872 496 781 573 q 689 650 542 650 q 475 650 417 635 q 359 620 312 589 q 224 534 176 447 q 128 360 128 254 q 128 102 230 10 q 333 -81 503 -81 q 584 -81 661 -57 q 738 -33 803 12 l 836 -36 q 763 -91 680 -119 q 598 -147 507 -147 q 413 -147 335 -124 q 258 -100 198 -54 q 123 3 85 80 q 48 157 48 255 q 48 335 73 408 q 99 480 148 541 q 220 628 321 674 q 421 719 545 719 q 626 719 699 697 q 771 675 823 635 q 888 585 920 520 q 952 455 952 373 q 952 294 920 226 q 889 157 830 110 q 796 83 757 69 q 717 55 675 55 q 623 55 598 75 q 573 95 573 136 z m 602 345 q 595 386 572 409 q 549 431 512 431 q 450 431 406 368 q 362 306 362 217 q 362 169 384 143 q 406 117 447 117 q 491 117 527 150 q 562 182 575 234 z"},".":{"x_min":0,"x_max":302,"ha":302,"o":"m 87 54 q 87 81 105 100 q 124 119 151 119 q 178 119 196 100 q 215 81 215 54 q 215 28 196 10 q 178 -9 151 -9 q 124 -9 105 10 q 87 28 87 54 z"},"p":{"x_min":0,"x_max":582,"ha":582,"o":"m 176 233 q 176 161 212 118 q 248 75 306 75 q 366 75 399 115 q 432 155 432 229 q 432 302 398 344 q 363 385 303 385 q 243 385 209 345 q 176 305 176 233 z m 73 -218 l 73 463 l 179 463 l 179 387 q 198 431 239 455 q 279 479 336 479 q 428 479 486 411 q 543 343 543 232 q 543 115 487 48 q 430 -19 332 -19 q 283 -19 245 0 q 208 20 179 60 l 179 -218 z"},"X":{"x_min":0,"x_max":572,"ha":572,"o":"m 0 0 l 232 374 l 27 715 l 149 715 l 252 540 q 260 526 283 483 l 290 469 q 298 484 307 501 q 317 519 329 539 l 438 715 l 557 715 l 348 376 l 573 0 l 445 0 l 325 203 l 323 206 q 304 243 287 275 q 279 258 269 240 q 259 223 248 204 l 123 0 z"},"*":{"x_min":0,"x_max":440,"ha":440,"o":"m 87 424 l 52 483 l 162 539 l 52 604 l 87 664 l 190 598 l 184 715 l 255 715 l 248 597 l 353 664 l 388 604 l 275 542 l 388 483 l 351 424 l 248 492 l 255 372 l 184 372 l 189 491 z"},"Y":{"x_min":0,"x_max":593,"ha":593,"o":"m 236 0 l 236 327 l -5 715 l 117 715 l 267 472 q 272 463 281 448 q 289 433 297 415 q 304 432 311 447 q 319 462 327 475 l 481 715 l 597 715 l 351 327 l 351 0 z"},"c":{"x_min":0,"x_max":454,"ha":454,"o":"m 419 331 q 395 358 362 372 q 330 386 292 386 q 227 386 188 344 q 149 302 149 233 q 149 161 188 119 q 228 78 297 78 q 335 78 366 93 q 396 107 419 136 l 419 14 q 390 -2 356 -11 q 323 -19 285 -19 q 176 -19 108 50 q 39 120 39 230 q 39 342 110 410 q 181 479 296 479 q 332 479 362 472 q 393 465 419 450 z"},"!":{"x_min":0,"x_max":329,"ha":329,"o":"m 109 731 l 220 731 l 220 164 l 109 164 z m 100 45 q 100 71 119 90 q 138 109 164 109 q 191 109 209 90 q 228 72 228 45 q 228 19 209 0 q 191 -19 164 -19 q 137 -19 119 0 q 100 19 100 45 z"},"/":{"x_min":0,"x_max":433,"ha":433,"o":"m 350 731 l 433 731 l 83 -93 l 0 -93 z"},"[":{"x_min":0,"x_max":303,"ha":303,"o":"m 190 -125 l 283 -125 l 283 -202 l 97 -202 l 97 731 l 283 731 l 283 655 l 190 655 z"},"6":{"x_min":0,"x_max":604,"ha":604,"o":"m 166 219 q 166 155 202 116 q 237 77 294 77 q 358 77 395 115 q 431 153 431 219 q 431 286 395 324 q 359 362 295 362 q 238 362 202 322 q 166 283 166 219 z m 231 434 q 255 445 278 451 q 301 457 324 457 q 420 457 482 392 q 544 327 544 226 q 544 116 474 48 q 405 -19 291 -19 q 185 -19 120 47 q 55 113 55 220 q 55 335 211 555 l 224 572 l 349 749 l 438 704 z"},"r":{"x_min":0,"x_max":368,"ha":368,"o":"m 179 389 q 196 435 224 457 q 252 479 294 479 q 316 479 338 474 q 360 468 381 458 l 343 368 q 329 378 313 383 q 297 387 278 387 q 225 387 202 345 q 179 303 179 203 l 179 0 l 73 0 l 73 464 l 179 464 z"},"2":{"x_min":0,"x_max":604,"ha":604,"o":"m 500 93 l 500 0 l 21 0 l 288 320 q 338 380 361 425 q 384 471 384 508 q 384 561 352 592 q 321 622 266 622 q 217 622 186 592 q 154 561 150 511 l 38 511 q 38 607 103 665 q 167 722 276 722 q 379 722 439 669 q 499 616 499 524 q 499 458 465 392 q 430 325 319 198 l 228 93 z"},"{":{"x_min":0,"x_max":500,"ha":500,"o":"m 427 721 l 427 634 q 423 634 415 634 q 407 635 404 635 q 351 635 332 615 q 313 594 313 530 l 313 412 q 313 336 292 304 q 270 272 214 259 q 270 246 291 214 q 313 182 313 106 l 313 -11 q 313 -76 332 -96 q 352 -117 405 -117 q 408 -117 416 -117 q 423 -116 427 -116 l 427 -202 l 396 -202 q 346 -202 315 -196 q 284 -190 263 -178 q 235 -162 224 -131 q 213 -101 213 -32 l 213 89 q 213 159 187 188 q 162 217 100 217 q 97 217 90 216 q 83 216 79 216 l 79 303 q 83 303 90 302 q 97 302 100 302 q 162 302 187 331 q 213 359 213 429 l 213 550 q 213 621 224 651 q 235 681 263 697 q 285 710 316 716 q 348 721 405 721 z"},"9":{"x_min":0,"x_max":604,"ha":604,"o":"m 429 485 q 429 549 394 588 q 359 627 302 627 q 238 627 201 589 q 164 551 164 485 q 164 417 200 379 q 236 341 300 341 q 357 341 393 381 q 429 421 429 485 z m 364 269 q 341 258 318 252 q 295 247 271 247 q 175 247 113 312 q 51 376 51 477 q 51 587 120 655 q 190 722 304 722 q 411 722 476 656 q 541 591 541 484 q 541 369 384 149 l 372 132 l 246 -45 l 158 0 z"}," ":{"x_min":0,"x_max":302,"ha":302,"o":""},"I":{"x_min":0,"x_max":285,"ha":285,"o":"m 84 0 l 84 715 l 200 715 l 200 0 z"},"H":{"x_min":0,"x_max":748,"ha":748,"o":"m 82 0 l 82 715 l 198 715 l 198 451 l 550 451 l 550 715 l 666 715 l 666 0 l 550 0 l 550 347 l 198 347 l 198 0 z"},"4":{"x_min":0,"x_max":604,"ha":604,"o":"m 359 483 l 177 226 l 356 226 l 356 412 q 356 427 357 445 q 357 463 359 483 z m 356 0 l 356 145 l 13 145 l 429 722 l 462 722 l 462 226 l 549 226 l 549 145 l 462 145 l 462 0 z"},"~":{"x_min":0,"x_max":833,"ha":833,"o":"m 747 383 l 747 293 q 697 258 651 241 q 604 224 561 224 q 540 224 516 228 q 492 232 468 241 q 456 245 431 254 q 327 290 275 290 q 235 290 190 271 q 145 253 87 212 l 87 303 q 139 338 186 356 q 232 373 276 373 q 306 373 337 367 q 368 361 419 344 q 426 342 440 336 q 520 308 562 308 q 604 308 648 326 q 693 344 747 383 z"},"D":{"x_min":0,"x_max":740,"ha":740,"o":"m 198 105 l 296 105 q 376 105 417 116 q 457 126 487 152 q 527 187 548 238 q 568 290 568 358 q 568 426 548 478 q 527 529 487 564 q 457 589 414 600 q 372 611 282 611 l 240 611 l 198 611 z m 82 0 l 82 715 l 239 715 q 392 715 454 699 q 516 684 563 648 q 625 601 657 526 q 689 452 689 357 q 689 262 657 188 q 625 115 563 67 q 516 31 456 15 q 396 0 270 0 l 239 0 z"},"^":{"x_min":0,"x_max":1000,"ha":1000,"o":"m 447 713 l 553 713 l 795 439 l 694 439 l 500 633 l 305 439 l 204 439 z"},"0":{"x_min":0,"x_max":604,"ha":604,"o":"m 559 344 q 559 174 490 77 q 422 -19 302 -19 q 180 -19 113 78 q 45 176 45 352 q 45 527 113 625 q 182 722 303 722 q 426 722 493 624 q 559 526 559 344 z m 300 81 q 371 81 407 149 q 443 217 443 353 q 443 485 407 554 q 372 623 304 623 q 233 623 197 554 q 161 485 161 351 q 161 221 197 151 q 233 81 300 81 z"},"F":{"x_min":0,"x_max":525,"ha":525,"o":"m 82 0 l 82 715 l 481 715 l 481 616 l 198 616 l 198 438 l 481 438 l 481 336 l 198 336 l 198 0 z"},"`":{"x_min":0,"x_max":500,"ha":500,"o":"m 319 533 l 259 533 l 116 666 l 226 666 z"},"k":{"x_min":0,"x_max":516,"ha":516,"o":"m 73 0 l 73 757 l 179 757 l 179 271 l 373 463 l 504 463 l 294 259 l 524 0 l 387 0 l 179 239 l 179 0 z"},"u":{"x_min":0,"x_max":588,"ha":588,"o":"m 176 463 l 176 202 q 176 135 204 105 q 231 76 294 76 q 356 76 384 105 q 412 135 412 202 l 412 463 l 518 463 l 518 234 q 518 101 465 41 q 412 -19 295 -19 q 176 -19 123 41 q 70 100 70 234 l 70 463 z"},"]":{"x_min":0,"x_max":303,"ha":303,"o":"m 113 -125 l 113 655 l 21 655 l 21 731 l 206 731 l 206 -202 l 21 -202 l 21 -125 z"},"U":{"x_min":0,"x_max":744,"ha":744,"o":"m 79 715 l 194 715 l 194 281 q 194 184 239 135 q 283 87 372 87 q 460 87 505 135 q 550 184 550 281 l 550 715 l 666 715 l 666 270 q 666 125 593 53 q 520 -19 372 -19 q 225 -19 152 53 q 79 125 79 270 z"},"o":{"x_min":0,"x_max":588,"ha":588,"o":"m 437 230 q 437 294 396 339 q 354 384 294 384 q 234 384 193 339 q 151 294 151 230 q 151 166 193 121 q 234 76 294 76 q 354 76 395 121 q 437 166 437 230 z m 39 231 q 39 282 58 327 q 78 372 114 407 q 149 442 196 460 q 242 479 293 479 q 345 479 391 460 q 438 442 474 406 q 511 370 530 325 q 549 280 549 231 q 549 180 530 135 q 511 90 475 55 q 437 19 391 0 q 344 -19 293 -19 q 243 -19 196 0 q 150 19 114 54 q 77 90 58 135 q 39 180 39 231 z"},"N":{"x_min":0,"x_max":803,"ha":803,"o":"m 82 0 l 82 743 l 536 306 q 555 288 574 267 q 593 246 614 219 l 614 715 l 721 715 l 721 -28 l 258 417 q 239 435 222 455 q 205 475 189 497 l 189 0 z"},"+":{"x_min":0,"x_max":833,"ha":833,"o":"m 375 596 l 458 596 l 458 339 l 709 339 l 709 258 l 458 258 l 458 0 l 375 0 l 375 258 l 124 258 l 124 339 l 375 339 z"},"G":{"x_min":0,"x_max":803,"ha":803,"o":"m 478 366 l 761 366 q 761 359 762 346 q 763 311 763 299 q 763 148 677 64 q 590 -19 433 -19 q 345 -19 276 7 q 208 33 156 85 q 105 137 78 207 q 51 276 51 356 q 51 437 78 505 q 106 574 160 626 q 212 677 283 704 q 353 731 433 731 q 518 731 584 700 q 651 669 703 606 l 618 542 q 582 584 537 604 q 491 625 435 625 q 319 625 245 551 q 172 476 172 357 q 172 236 245 160 q 319 85 436 85 q 536 85 593 131 q 650 178 650 258 l 650 268 l 478 268 z"},"q":{"x_min":0,"x_max":582,"ha":582,"o":"m 406 233 q 406 305 372 345 q 339 385 279 385 q 219 385 184 344 q 150 302 150 229 q 150 155 183 115 q 216 75 277 75 q 335 75 370 118 q 406 161 406 233 z m 509 -218 l 403 -218 l 403 60 q 375 20 337 0 q 299 -19 250 -19 q 152 -19 95 48 q 39 115 39 232 q 39 343 97 411 q 154 479 247 479 q 304 479 344 455 q 384 432 403 387 l 403 463 l 509 463 z"},"d":{"x_min":0,"x_max":582,"ha":582,"o":"m 406 233 q 406 305 372 345 q 339 385 279 385 q 219 385 184 344 q 150 302 150 229 q 150 155 183 115 q 216 75 277 75 q 334 75 370 118 q 406 162 406 233 z m 403 757 l 509 757 l 509 0 l 403 0 l 403 60 q 375 20 337 0 q 299 -19 250 -19 q 152 -19 95 48 q 39 115 39 232 q 39 343 97 411 q 154 479 247 479 q 304 479 344 455 q 384 432 403 387 z"},"1":{"x_min":0,"x_max":604,"ha":604,"o":"m 264 0 l 264 616 l 116 616 l 161 708 l 370 708 l 370 0 z"},"5":{"x_min":0,"x_max":604,"ha":604,"o":"m 115 171 q 140 125 179 101 q 218 76 266 76 q 337 76 381 121 q 425 167 425 240 q 425 311 379 355 q 333 400 258 400 q 213 400 175 385 q 136 369 107 339 l 78 345 l 167 708 l 505 708 l 505 614 l 237 614 l 195 456 q 224 468 251 474 q 279 480 306 480 q 408 480 472 415 q 536 349 536 244 q 536 124 461 52 q 387 -19 261 -19 q 187 -19 132 7 q 78 32 38 86 z"}}}
